<svg xmlns="http://www.w3.org/2000/svg" xmlns:xlink="http://www.w3.org/1999/xlink" width="500" zoomAndPan="magnify" viewBox="0 0 375 374.999991" height="500" preserveAspectRatio="xMidYMid meet" version="1.0"><defs><clipPath id="56ecb20830"><path d="M 68.9375 187.5 L 159.550781 187.5 L 159.550781 266.667969 L 68.9375 266.667969 Z M 68.9375 187.5 " clip-rule="nonzero"/></clipPath><clipPath id="9aba856f34"><path d="M 114.179688 187.5 L 159.417969 266.667969 L 68.9375 266.667969 Z M 114.179688 187.5 " clip-rule="nonzero"/></clipPath><clipPath id="9c57e0edfc"><path d="M 123.347656 108.332031 L 228.90625 108.332031 L 228.90625 266.667969 L 123.347656 266.667969 Z M 123.347656 108.332031 " clip-rule="nonzero"/></clipPath><clipPath id="ab056d993e"><path d="M 176.128906 108.332031 L 123.347656 108.332031 L 176.128906 266.667969 L 228.90625 266.667969 Z M 176.128906 108.332031 " clip-rule="nonzero"/></clipPath><clipPath id="2659515e3d"><path d="M 200.503906 108.332031 L 306.0625 108.332031 L 306.0625 266.667969 L 200.503906 266.667969 Z M 200.503906 108.332031 " clip-rule="nonzero"/></clipPath><clipPath id="7229db3646"><path d="M 253.28125 108.332031 L 200.503906 108.332031 L 253.28125 266.667969 L 306.0625 266.667969 Z M 253.28125 108.332031 " clip-rule="nonzero"/></clipPath></defs><g clip-path="url(#56ecb20830)"><g clip-path="url(#9aba856f34)"><path fill="#000000" d="M 68.9375 187.5 L 159.550781 187.5 L 159.550781 266.667969 L 68.9375 266.667969 Z M 68.9375 187.5 " fill-opacity="1" fill-rule="nonzero"/></g></g><g clip-path="url(#9c57e0edfc)"><g clip-path="url(#ab056d993e)"><path fill="#000000" d="M 123.347656 108.332031 L 228.90625 108.332031 L 228.90625 266.667969 L 123.347656 266.667969 Z M 123.347656 108.332031 " fill-opacity="1" fill-rule="nonzero"/></g></g><g clip-path="url(#2659515e3d)"><g clip-path="url(#7229db3646)"><path fill="#000000" d="M 200.503906 108.332031 L 306.0625 108.332031 L 306.0625 266.667969 L 200.503906 266.667969 Z M 200.503906 108.332031 " fill-opacity="1" fill-rule="nonzero"/></g></g></svg>