<svg xmlns="http://www.w3.org/2000/svg" xmlns:xlink="http://www.w3.org/1999/xlink" width="500" zoomAndPan="magnify" viewBox="0 0 375 374.999991" height="500" preserveAspectRatio="xMidYMid meet" version="1.0"><defs><clipPath id="f25fca3df7"><path d="M 68.9375 187.5 L 159.550781 187.5 L 159.550781 266.667969 L 68.9375 266.667969 Z M 68.9375 187.5 " clip-rule="nonzero"/></clipPath><clipPath id="fa7fa6cc9d"><path d="M 114.179688 187.5 L 159.417969 266.667969 L 68.9375 266.667969 Z M 114.179688 187.5 " clip-rule="nonzero"/></clipPath><clipPath id="88a57f7f27"><path d="M 123.347656 108.332031 L 228.90625 108.332031 L 228.90625 266.667969 L 123.347656 266.667969 Z M 123.347656 108.332031 " clip-rule="nonzero"/></clipPath><clipPath id="6f47d246d5"><path d="M 176.128906 108.332031 L 123.347656 108.332031 L 176.128906 266.667969 L 228.90625 266.667969 Z M 176.128906 108.332031 " clip-rule="nonzero"/></clipPath><clipPath id="851b43bc49"><path d="M 200.503906 108.332031 L 306.0625 108.332031 L 306.0625 266.667969 L 200.503906 266.667969 Z M 200.503906 108.332031 " clip-rule="nonzero"/></clipPath><clipPath id="c1cae7176c"><path d="M 253.28125 108.332031 L 200.503906 108.332031 L 253.28125 266.667969 L 306.0625 266.667969 Z M 253.28125 108.332031 " clip-rule="nonzero"/></clipPath></defs><g clip-path="url(#f25fca3df7)"><g clip-path="url(#fa7fa6cc9d)"><path fill="#ffffff" d="M 68.9375 187.5 L 159.550781 187.5 L 159.550781 266.667969 L 68.9375 266.667969 Z M 68.9375 187.5 " fill-opacity="1" fill-rule="nonzero"/></g></g><g clip-path="url(#88a57f7f27)"><g clip-path="url(#6f47d246d5)"><path fill="#ffffff" d="M 123.347656 108.332031 L 228.90625 108.332031 L 228.90625 266.667969 L 123.347656 266.667969 Z M 123.347656 108.332031 " fill-opacity="1" fill-rule="nonzero"/></g></g><g clip-path="url(#851b43bc49)"><g clip-path="url(#c1cae7176c)"><path fill="#ffffff" d="M 200.503906 108.332031 L 306.0625 108.332031 L 306.0625 266.667969 L 200.503906 266.667969 Z M 200.503906 108.332031 " fill-opacity="1" fill-rule="nonzero"/></g></g></svg>